<svg xmlns="http://www.w3.org/2000/svg" width="44.679" height="51.146" viewBox="0 0 44.679 51.146">
  <g id="Group_20" data-name="Group 20" transform="translate(-983 84.036)">
    <g id="Group_19" data-name="Group 19" transform="translate(983 -81.484)">
      <path id="Path_37" data-name="Path 37" d="M1001.222-34.056a4.553,4.553,0,0,0-4.554,4.554,4.553,4.553,0,0,0,4.554,4.554,4.556,4.556,0,0,0,4.554-4.554,4.556,4.556,0,0,0-4.554-4.554Zm0-13.668A18.222,18.222,0,0,0,983-29.5C983-21.883,998.192.887,1001.222.87c2.98.017,18.222-22.855,18.222-30.372a18.222,18.222,0,0,0-18.222-18.222Zm0,25.818a7.6,7.6,0,0,1-7.6-7.6,7.6,7.6,0,0,1,7.6-7.6,7.6,7.6,0,0,1,7.6,7.6,7.6,7.6,0,0,1-7.6,7.6Zm0,0" transform="translate(-983 47.724)" fill="#d81e06"/>
    </g>
    <circle id="Ellipse_1" data-name="Ellipse 1" cx="9.517" cy="9.517" r="9.517" transform="translate(1008.645 -84.036)" fill="#fff800"/>
    <rect id="Rectangle_7" data-name="Rectangle 7" width="2.182" height="9.424" rx="1.091" transform="translate(1017.094 -81.205)"/>
    <circle id="Ellipse_2" data-name="Ellipse 2" cx="1.207" cy="1.207" r="1.207" transform="translate(1017.001 -70.249)"/>
  </g>
</svg>
